<svg xmlns="http://www.w3.org/2000/svg" xmlns:xlink="http://www.w3.org/1999/xlink" width="674" height="168" viewBox="0 0 674 168"><defs><clipPath id="b"><rect width="674" height="168"/></clipPath></defs><g id="a" clip-path="url(#b)"><g transform="translate(10 9)"><g transform="translate(36.086)"><path d="M77.18,49.827a17.451,17.451,0,0,0,10.963.038,47.945,47.945,0,0,1,5.295-1.293,9.651,9.651,0,0,1,5.247.469c2.135.776,4.3,1.5,6.482,2.135a15.589,15.589,0,0,0,5.209.383c2.193-.115,4.385-.22,6.578-.191a4.967,4.967,0,0,1,3.657,1.666,5.1,5.1,0,0,1,1.283,3.38c.019.546.01,1.091,0,1.628a1.833,1.833,0,0,1-.124.488c-.048-.01-.1-.01-.134-.019a1.369,1.369,0,0,1-.019-.393c.124-.46-.1-.6-.507-.68a9.265,9.265,0,0,0-5.429.574,19.237,19.237,0,0,1-5.486,1.513,17.988,17.988,0,0,1-3.131.038c-1.628-.115-3.265-.249-4.873-.507A27.866,27.866,0,0,1,90.517,54.4a17.821,17.821,0,0,1-3.571-3.217.726.726,0,0,0-.8-.3,14.764,14.764,0,0,1-8.311-.766A4.9,4.9,0,0,1,77.18,49.827Zm34.756,2.068c.01.124.01.182.019.23a5.4,5.4,0,0,1-10.35,3.045,5.145,5.145,0,0,1,.268-4c.134-.287.105-.45-.211-.546-.421-.134-.833-.3-1.254-.431a14.383,14.383,0,0,0-5.592-1.178c-.383.029-.46.144-.412.488a9.832,9.832,0,0,0,3.619,6.52,14.865,14.865,0,0,0,6.894,2.9,18.552,18.552,0,0,0,6.463-.105,7.563,7.563,0,0,0,6.281-6.578c.057-.412-.077-.555-.46-.555-1.044.019-2.1.01-3.14.048C113.362,51.751,112.673,51.828,111.936,51.895ZM100.925,58.31c-4.06-1.762-6.53-4.72-7.076-9.2a58.766,58.766,0,0,0-6.76,1.628A25.067,25.067,0,0,0,100.925,58.31Zm20.633-1.2c.5-1.972-1.455-4.988-3.351-5.189a8.427,8.427,0,0,1-3.073,5.716c1.139-.306,2.173-.661,3.227-.833A6.306,6.306,0,0,1,121.558,57.113Zm-14.85,1.034a4.68,4.68,0,0,0,4.557-5.946c-.105-.393-.4-.306-.661-.268-.3.048-.182.259-.124.44a3.947,3.947,0,0,1-3.332,4.988,3.8,3.8,0,0,1-3.715-1.79,3.751,3.751,0,0,1-.163-3.954c.105-.2.239-.383-.077-.507-.249-.1-.469-.2-.641.144A4.705,4.705,0,0,0,106.708,58.147Z" transform="translate(-77.094 -32.209)" fill="#d6b969"/><path d="M144.167,58.482c-.019-.574-.077-1.149-.057-1.723a6.009,6.009,0,0,1,1.082-3.38,4.938,4.938,0,0,1,3.849-1.992c1.513-.1,3.035.067,4.557.1,1.819.029,3.638.105,5.457.029a15.765,15.765,0,0,0,4.414-1.082c1.474-.507,2.949-1.015,4.423-1.542A10.619,10.619,0,0,1,174,48.821c1.752.412,3.485.919,5.228,1.388a16.414,16.414,0,0,0,9.622-.383,3.094,3.094,0,0,1-.469.239,14.943,14.943,0,0,1-8.483.852.722.722,0,0,0-.6.134,22.979,22.979,0,0,1-7.363,5.5,29.02,29.02,0,0,1-10.044,2.8c-1.752.163-3.514.23-5.276.259a14.648,14.648,0,0,1-4.644-.986c-1.091-.345-2.154-.785-3.246-1.1a8.024,8.024,0,0,0-4.04.029c-.278.057-.316.239-.287.479a3.835,3.835,0,0,1,0,.469A1.845,1.845,0,0,0,144.167,58.482Zm14.247.641h.431a15.86,15.86,0,0,0,8.406-2.518,9.7,9.7,0,0,0,4.4-7.056c.038-.268.1-.546-.326-.527a11.9,11.9,0,0,0-2.269.153c-1.609.421-3.169.967-4.759,1.455-.287.086-.211.249-.124.421a5.392,5.392,0,0,1-7.267,7.21,5.258,5.258,0,0,1-2.824-6.051c.057-.278-.029-.354-.287-.373-.67-.038-1.34-.115-2.02-.134-.986-.029-1.982-.029-2.968-.01-.22,0-.488.01-.431.412a7.53,7.53,0,0,0,4.577,6.195A15.063,15.063,0,0,0,158.414,59.124Zm6.606-.833c3.016.316,12.782-5.055,13.854-7.64-2.212-.536-4.414-1.072-6.654-1.618C171.684,53.609,169.157,56.529,165.021,58.291Zm-14.142-.613a8.863,8.863,0,0,1-3.045-5.793A4.9,4.9,0,0,0,144.5,57.1,8.733,8.733,0,0,1,150.879,57.678Zm11.71-6.472a.961.961,0,0,0,.086.22,3.9,3.9,0,1,1-7.1,1.034c.134-.469.105-.565-.383-.527a.512.512,0,0,0-.373.3,3.519,3.519,0,0,0-.134.843,4.691,4.691,0,0,0,7.966,3.753,4.628,4.628,0,0,0,.977-5.3c-.259-.574-.259-.574-.871-.393C162.7,51.129,162.665,51.158,162.589,51.206Z" transform="translate(-79.941 -32.21)" fill="#d6b969"/><path d="M83.127,34.99a1.584,1.584,0,0,1,.306.172,18.025,18.025,0,0,0,9.46,4.069,30.892,30.892,0,0,0,9.929-.46,38.507,38.507,0,0,1,9.2-.737,12.26,12.26,0,0,1,7.87,3.121,15.292,15.292,0,0,1,4.088,6.664.627.627,0,0,1-.029.431c-.115-.134-.249-.268-.354-.412-.91-1.178-1.733-2.432-2.729-3.533a12.58,12.58,0,0,0-7.679-3.954,34.179,34.179,0,0,0-9.22-.115,44.318,44.318,0,0,1-7.8.46,21.281,21.281,0,0,1-10.838-3.59,10.087,10.087,0,0,1-2.26-2.02A.419.419,0,0,0,83.127,34.99Z" transform="translate(-77.344 -31.639)" fill="#d6b969"/><path d="M183.2,35.134c-.44.412-.862.862-1.331,1.245a19.73,19.73,0,0,1-10.034,4.146,30.56,30.56,0,0,1-8.148-.134,38.673,38.673,0,0,0-8.675-.287,17.291,17.291,0,0,0-6.137,1.532,14.065,14.065,0,0,0-4.768,4.2c-.574.747-1.1,1.532-1.656,2.3a1.633,1.633,0,0,1-.211.163,2.308,2.308,0,0,1,0-.45,14.7,14.7,0,0,1,4.586-7.076,12.212,12.212,0,0,1,6.472-2.662,24.858,24.858,0,0,1,6.31.134c2.374.306,4.73.737,7.1,1.015a22.6,22.6,0,0,0,12.447-1.743,14.139,14.139,0,0,0,3.5-2.231,3.756,3.756,0,0,1,.306-.239.405.405,0,0,1,.115-.038C183.132,35.067,183.171,35.1,183.2,35.134Z" transform="translate(-79.861 -31.64)" fill="#d6b969"/><path d="M134.04,31.49c.823,1.484,1.695,2.949,2.461,4.462a5.146,5.146,0,0,1,.373,4,3.062,3.062,0,0,1-5.1,1.436,3.81,3.81,0,0,1-1.072-2.422,5.257,5.257,0,0,1,.316-2.365,21.463,21.463,0,0,1,2.853-5.065A1.6,1.6,0,0,0,134.04,31.49Z" transform="translate(-79.37 -31.49)" fill="#d6b969"/><path d="M141.636,58.4a1.453,1.453,0,0,1-.057-.191,10.27,10.27,0,0,1,.785-5,6.845,6.845,0,0,1,5.62-4.012,22.4,22.4,0,0,1,5.189.124c1.34.115,2.69.191,4.04.259a15.057,15.057,0,0,0,5.477-.938c1.8-.584,3.581-1.206,5.39-1.762a11.269,11.269,0,0,1,7.372.46c1.4.507,2.748,1.13,4.136,1.666a10.691,10.691,0,0,0,7.851,0c.488-.182.957-.412,1.436-.622.019.029.038.067.057.1-.259.144-.507.306-.776.431a11.159,11.159,0,0,1-9.287.316c-1.369-.536-2.757-1.053-4.155-1.494a11.054,11.054,0,0,0-7.775.354c-1.743.718-3.552,1.283-5.343,1.9a14.913,14.913,0,0,1-5.984.689q-2.786-.2-5.582-.421a8.585,8.585,0,0,0-4.165.613,6.255,6.255,0,0,0-3.495,4.127,26.033,26.033,0,0,0-.546,2.987c-.019.134-.048.268-.067.4A.3.3,0,0,1,141.636,58.4Z" transform="translate(-79.833 -32.127)" fill="#d6b969"/><path d="M124.245,58.294c-.077-.517-.144-1.024-.22-1.542a8.333,8.333,0,0,0-1.905-4.433,6.539,6.539,0,0,0-5.189-2.078,44.747,44.747,0,0,0-4.931.345,19.623,19.623,0,0,1-9.7-1.283c-1.34-.536-2.719-.977-4.069-1.494a10.092,10.092,0,0,0-6.712-.124c-1.541.469-3.054,1.053-4.567,1.609a10.961,10.961,0,0,1-9.5-.584,2.229,2.229,0,0,1-.249-.163,1.74,1.74,0,0,1-.115-.144c.105.01.163,0,.211.029a10.94,10.94,0,0,0,10.168.1,23.056,23.056,0,0,1,5.467-1.867,10.873,10.873,0,0,1,5.639.412c2.317.776,4.653,1.513,7.009,2.193a13.676,13.676,0,0,0,4.835.23c1.944-.134,3.887-.3,5.84-.393a8.213,8.213,0,0,1,4.548,1.034,6.971,6.971,0,0,1,3.456,5.41c.134.9.105,1.829.153,2.748A1.037,1.037,0,0,0,124.245,58.294Z" transform="translate(-77.09 -32.127)" fill="#d6b969"/></g><g transform="translate(0 26.426)"><g transform="translate(29.115 12.495)"><path d="M194.294,104.473a137.161,137.161,0,0,0-14.036-1.015,91.4,91.4,0,0,0-12.313.574,85.4,85.4,0,0,0-5.544-12.1c-1.685-3.035-3.485-5.984-5.371-8.885.393-.3.785-.6,1.187-.89a42.576,42.576,0,0,1,3.964-2.461,55.509,55.509,0,0,1,8.5-3.744,74.7,74.7,0,0,1,8.952-2.48,72.214,72.214,0,0,1,8.359-1.331,69.653,69.653,0,0,1,2.968,7.937,81.667,81.667,0,0,1,2.26,9.048,66.719,66.719,0,0,1,1.1,9.268A53.684,53.684,0,0,1,194.294,104.473Z" transform="translate(-73.52 -72.14)" fill="#d6b969"/><path d="M106.212,82.818c-2.039,3.274-3.973,6.626-5.745,10.072a86.584,86.584,0,0,0-4.835,11.183,88.742,88.742,0,0,0-12.753-.278c-4.328.2-8.627.632-12.9,1.235a50.411,50.411,0,0,1-.153-5.505,66.969,66.969,0,0,1,.843-9.3,79.617,79.617,0,0,1,2.02-9.105A71.293,71.293,0,0,1,75.43,73.1a72.009,72.009,0,0,1,8.4,1.1,75.054,75.054,0,0,1,9.01,2.24,55.932,55.932,0,0,1,8.607,3.5,44.607,44.607,0,0,1,4.031,2.346C105.724,82.464,105.963,82.646,106.212,82.818Z" transform="translate(-69.809 -72.181)" fill="#d6b969"/><path d="M113.128,168.835a16.14,16.14,0,0,0,.115,1.934c-.718.507-1.446.986-2.193,1.446a38.384,38.384,0,0,1-13.558,5.3,29.073,29.073,0,0,1-7.171.354,28.642,28.642,0,0,1-6.989-1.5c-1.139-.364-2.231-.881-3.342-1.35a34.407,34.407,0,0,1-3.093-1.781,41.279,41.279,0,0,1-5.706-4.529c-.46-.4-.89-.833-1.321-1.264a38.509,38.509,0,0,0,4.242-1.264c2.327-.814,4.567-1.838,6.855-2.643a58.478,58.478,0,0,1,14.094-3.3,53.271,53.271,0,0,1,14.343.44,48.308,48.308,0,0,1,5.237,1.206A16.541,16.541,0,0,0,113.128,168.835Z" transform="translate(-69.811 -75.876)" fill="#d6b969"/><path d="M194.565,166.773c-.421.44-.843.881-1.283,1.3a41.454,41.454,0,0,1-5.582,4.682,33.4,33.4,0,0,1-3.054,1.867c-1.082.5-2.164,1.053-3.294,1.446a27.855,27.855,0,0,1-14.122,1.542,38.62,38.62,0,0,1-13.7-4.94c-1.254-.737-2.489-1.522-3.686-2.365.048-.479.067-.967.067-1.465a16.53,16.53,0,0,0-1.149-6.1,47.769,47.769,0,0,1,6.1-1.647,53.146,53.146,0,0,1,14.323-.833,58.72,58.72,0,0,1,14.18,2.911c2.307.747,4.577,1.714,6.922,2.451A38.632,38.632,0,0,0,194.565,166.773Z" transform="translate(-73.168 -75.882)" fill="#d6b969"/></g><path d="M222.173,116.005a226.422,226.422,0,0,1-11.825,25.4,148.446,148.446,0,0,1-7.842,12.935c-1.446,2.049-2.9,4.1-4.49,6.022-.766.986-1.609,1.9-2.413,2.844-.373.393-.747.795-1.12,1.2a39.242,39.242,0,0,1-4.261-1.465c-2.269-.919-4.452-1.992-6.76-2.892-1.139-.5-2.307-.871-3.476-1.293-1.178-.393-2.365-.747-3.552-1.072-1.206-.287-2.413-.613-3.638-.814-.6-.115-1.216-.239-1.829-.335l-1.848-.259a52.768,52.768,0,0,0-14.936.2,51.822,51.822,0,0,0-6.875,1.6,17.217,17.217,0,0,0-4.289-4.787,53,53,0,0,0,9.364-4.443,40.142,40.142,0,0,0,11.652-10.407,31.543,31.543,0,0,0,3.868-6.97,32.374,32.374,0,0,0,1.953-7.775,37.473,37.473,0,0,0,.278-4.012,35.179,35.179,0,0,0-.278-4.031,42.013,42.013,0,0,0-1.494-6.922,90.871,90.871,0,0,1,11.193-.153c5.055.239,10.1.8,15.137,1.522A229.7,229.7,0,0,1,222.173,116.005Z" transform="translate(-43.809 -61.191)" fill="#d6b969"/><path d="M166.682,119.759c-.01,1.216.038,2.451-.086,3.667a29.712,29.712,0,0,1-1.446,7.171A30.052,30.052,0,0,1,161.9,137.2a39.6,39.6,0,0,1-10.5,10.628,57.488,57.488,0,0,1-6.52,3.935c-.852.431-1.714.852-2.585,1.254a16.537,16.537,0,0,0-6.042-2.671,49.842,49.842,0,0,1-.412-11.384,35.031,35.031,0,0,1,4.213-14.371,29.429,29.429,0,0,1,10.245-10.532,37.039,37.039,0,0,1,3.255-1.8,28.451,28.451,0,0,1,3.409-1.369,37.008,37.008,0,0,1,3.562-1.015c1.216-.239,2.432-.5,3.667-.661.105-.019.211-.029.306-.048a40.175,40.175,0,0,1,1.819,6.97A33.121,33.121,0,0,1,166.682,119.759Z" transform="translate(-43.497 -61.221)" fill="#d6b969"/><path d="M161.853,104.042c-1.2.2-2.374.507-3.552.785-1.273.393-2.556.728-3.8,1.245a32.386,32.386,0,0,0-3.677,1.647,38.43,38.43,0,0,0-3.409,2.068,31.74,31.74,0,0,0-6.042,5.218,30.56,30.56,0,0,0-4.471,6.578,35.453,35.453,0,0,0-3.6,15.195,46.641,46.641,0,0,0,1.139,11.375,16.927,16.927,0,0,0-3.294-.326,16.131,16.131,0,0,0-2.47.182,46.671,46.671,0,0,0,1-12.169,35.386,35.386,0,0,0-4.021-15.089,31.071,31.071,0,0,0-4.644-6.463,31.923,31.923,0,0,0-6.185-5.036c-1.111-.747-2.288-1.35-3.466-1.982a31.32,31.32,0,0,0-3.715-1.542c-1.264-.479-2.556-.785-3.839-1.139-1.024-.211-2.049-.44-3.083-.613a117.009,117.009,0,0,1,12.562-22.759,227.58,227.58,0,0,1,17.2-22.127,228.163,228.163,0,0,1,17.751,21.571C153.543,88.015,158.445,95.76,161.853,104.042Z" transform="translate(-42.009 -59.09)" fill="#d6b969"/><path d="M119.06,152.883a16.9,16.9,0,0,0-4.366,4.4,49.305,49.305,0,0,0-6.223-1.226,52.73,52.73,0,0,0-14.936.211l-1.838.306c-.613.115-1.216.259-1.829.383-1.216.239-2.4.6-3.6.919-1.187.364-2.365.747-3.533,1.168-1.149.45-2.317.862-3.437,1.379-2.279.967-4.433,2.106-6.673,3.083a38.542,38.542,0,0,1-4.222,1.58c-.383-.393-.766-.785-1.149-1.168-.833-.919-1.695-1.81-2.489-2.777-1.637-1.877-3.16-3.878-4.653-5.9a147.414,147.414,0,0,1-8.2-12.705A225.69,225.69,0,0,1,39.4,117.476a229.347,229.347,0,0,1,27.307-6.664c5.007-.852,10.044-1.561,15.089-1.934a89.57,89.57,0,0,1,11.556-.134,2.189,2.189,0,0,0-.077.268c-.383,1.264-.651,2.576-.948,3.878-.211,1.321-.469,2.633-.555,3.983a31.754,31.754,0,0,0-.144,4.05,37.064,37.064,0,0,0,.383,3.993,32.494,32.494,0,0,0,2.087,7.755,30.808,30.808,0,0,0,3.983,6.942,35.886,35.886,0,0,0,12.179,9.881A47.446,47.446,0,0,0,119.06,152.883Z" transform="translate(-39.4 -61.197)" fill="#d6b969"/><path d="M128.291,150.175a16.476,16.476,0,0,0-6.2,2.355c-.641-.239-1.283-.479-1.915-.737a48.3,48.3,0,0,1-6.836-3.389,34.653,34.653,0,0,1-10.972-10.092A28.881,28.881,0,0,1,99,131.754a29.693,29.693,0,0,1-1.561-7.181c-.153-1.226-.153-2.461-.191-3.686a28.913,28.913,0,0,1,.249-3.638,36.462,36.462,0,0,1,.641-3.629c.316-1.2.6-2.394,1.005-3.581.1-.306.211-.613.316-.929,1.2.134,2.365.345,3.552.546,1.2.287,2.422.517,3.581.91a30.243,30.243,0,0,1,3.447,1.273,37.148,37.148,0,0,1,3.3,1.714,29.37,29.37,0,0,1,10.532,10.254,35.131,35.131,0,0,1,4.605,14.247A49.411,49.411,0,0,1,128.291,150.175Z" transform="translate(-41.861 -61.218)" fill="#d6b969"/><path d="M179.543,179.227c-2.719-4.136-6.051-7.21-10.963-7.889,7.143-2.4,5.85-11.126-5.218-12.083-1.407-.124-13.979-1.149-15.386-.948-1.321-.278-2.116-.115-2.288-.345-.345-.45,5.295-2.231,9.565-5.486a4.386,4.386,0,0,0,1.57-4.088,183.26,183.26,0,0,0-3.37-22.816,9.83,9.83,0,0,0-6.492-7.506c-11.566-4.242-10.465-3-11.633-4.232-.776-2.355.22-2.92,1.867-4.95.555.23.326-.038.306,2.509,0,.766-.029,1.283.756,1.647,2.643,1.226.709-4.107.967-7.5.488-6.472,3.246-7.267.957-7.372-.057-.019-.144,0-.115-.115,1.522-8.234-.086-9.6-4.165-11.164-1-4.519-1.723-3.954-1.781-4.194a17.269,17.269,0,0,0-1.752-5.888,2.314,2.314,0,0,0-3.83-.287,8.078,8.078,0,0,0-1.771,6.223c-.278.91-.661-.354-2.126,3.906-5.218,1.992-4.605,3.753-4.605,11.365-1.1-.5-1.36.038-1.044.594,3.217,5.812,1.685,10.752,1.455,13.165a1.222,1.222,0,0,0,2.2.881c.728-.843.345-2.853.345-3.878a7.6,7.6,0,0,1,1.1,1.178c.8.785,2.614,3.169-1.848,5.036-19.551,8.186-12.351,2.959-19.963,36.517-1.561,4.826-3.753,4.893-3.811,8.234a37.249,37.249,0,0,0-5.247,1.178c-12.179,3.121-7.909,9.038-2.489,10.695a17.752,17.752,0,0,0-9.632,8.11,28.144,28.144,0,0,0-1.407,3.447H181.056A19.386,19.386,0,0,0,179.543,179.227ZM140.68,151.2c3.265-7.784,3.284-11.394,4-15.942.144.01.3.019.44.019-.191,3.409,2.1,6.405,3.274,10.6-5.132,7.229-5.553,6.386-8.167,8.464C139.627,152.274,140.134,152.5,140.68,151.2Zm-23.563.048c-.881,3.37-3.37,3.294-5.764,3.964a14.425,14.425,0,0,0-4.174,1.36,8.071,8.071,0,0,0-1.388.651c-.737-2.327.833-2.269,2.145-6.137,5.639-16.688,3.533-17.378,5.946-18.565C118.017,139.186,118.6,145.534,117.117,151.25Z" transform="translate(-41.115 -59.794)" fill="#fff"/></g></g><text transform="translate(203.036 123)" fill="#5b5a5a" font-size="82" font-family="AdobeThai-Regular, Adobe Thai"><tspan x="0" y="0">Mila Thangka</tspan></text></g></svg>